HIERARCHY
ROOT Hips
{
  OFFSET 0 0 0
  CHANNELS 6 Xposition Yposition Zposition Zrotation Xrotation Yrotation
  JOINT Spine
  {
    OFFSET 0.00000000 0.00000000 0.00000000
    CHANNELS 3 Zrotation Xrotation Yrotation
    JOINT Spine1
    {
      OFFSET 0.19000000 0.00000000 0.00000000
      CHANNELS 3 Zrotation Xrotation Yrotation
      JOINT Neck
      {
        OFFSET 0.22500000 0.00600000 0.00000000
        CHANNELS 3 Zrotation Xrotation Yrotation
        JOINT Head
        {
          OFFSET 0.14000000 0.00030878 0.00000000
          CHANNELS 3 Zrotation Xrotation Yrotation
          End Site
          {
            OFFSET 0.17000000 0.00000000 0.00000000
          }
        }
      }
      JOINT LeftShoulder
      {
        OFFSET 0.19800000 0.03700000 0.04300000
        CHANNELS 3 Zrotation Xrotation Yrotation
        JOINT LeftArm
        {
          OFFSET 0.08000000 0.00000000 0.00000000
          CHANNELS 3 Zrotation Xrotation Yrotation
          JOINT LeftForeArm
          {
            OFFSET 0.15200000 0.00000000 0.00000000
            CHANNELS 3 Zrotation Xrotation Yrotation
            JOINT LeftHand
            {
              OFFSET 0.17800000 0.00000000 0.00000000
              CHANNELS 3 Zrotation Xrotation Yrotation
              End Site
              {
                OFFSET 0.07200000 0.00000000 0.00000000
              }
            }
          }
        }
      }
      JOINT RightShoulder
      {
        OFFSET 0.19800000 0.03700000 -0.04300000
        CHANNELS 3 Zrotation Xrotation Yrotation
        JOINT RightArm
        {
          OFFSET 0.08000000 0.00000000 0.00151654
          CHANNELS 3 Zrotation Xrotation Yrotation
          JOINT RightForeArm
          {
            OFFSET 0.15200000 0.00000000 0.00000000
            CHANNELS 3 Zrotation Xrotation Yrotation
            JOINT RightHand
            {
              OFFSET 0.17800000 0.00000000 0.00000000
              CHANNELS 3 Zrotation Xrotation Yrotation
              End Site
              {
                OFFSET 0.07200000 0.00000000 0.00000000
              }
            }
          }
        }
      }
    }
  }
  JOINT LeftUpLeg
  {
    OFFSET 0.05984250 -0.07666000 0.04788790
    CHANNELS 3 Zrotation Xrotation Yrotation
    JOINT LeftLeg
    {
      OFFSET 0.16000000 0.00000000 0.00000000
      CHANNELS 3 Zrotation Xrotation Yrotation
      JOINT LeftFoot
      {
        OFFSET 0.18000000 0.00000000 0.00000000
        CHANNELS 3 Zrotation Xrotation Yrotation
        End Site
        {
          OFFSET 0.00000000 -0.10800000 0.00000000
        }
      }
    }
  }
  JOINT RightUpLeg
  {
    OFFSET 0.05984250 -0.07665980 -0.04788790
    CHANNELS 3 Zrotation Xrotation Yrotation
    JOINT RightLeg
    {
      OFFSET 0.16000000 0.00000000 0.00000000
      CHANNELS 3 Zrotation Xrotation Yrotation
      JOINT RightFoot
      {
        OFFSET 0.18000000 0.00000000 0.00000000
        CHANNELS 3 Zrotation Xrotation Yrotation
        End Site
        {
          OFFSET 0.00000000 -0.10800000 0.00000000
        }
      }
    }
  }
  JOINT Tail
  {
    OFFSET 0.06836960 -0.00722574 0.00000000
    CHANNELS 3 Zrotation Xrotation Yrotation
    JOINT Tail1
    {
      OFFSET 0.12000000 0.00000000 0.00000000
      CHANNELS 3 Zrotation Xrotation Yrotation
      End Site
      {
        OFFSET 0.12000000 0.00000000 0.00000000
      }
    }
  }
}
MOTION
Frames:	12
Frame Time:	0.0166667
0.0000000 0.4785350 0.0000000 -3.49317 5.48776 0.33447 -174.776 0.518099 -2.07334 11.2622 -0.154151 10.5358 2.67619 -9.01674 21.1332 -106.408 64.1687 118.049 -109.713 -32.0916 -145.838 117.448 -31.4553 -135.04 -58.5782 16.3349 -1.13625 -24.2201 7.25684 -25.0151 73.5662 -33.9919 47.6076 51.3359 -10.7004 -47.6678 -86.8854 -0.61809 -10.5871 -1.78865 1.52984 -5.87124 -118.156 -3.41477 -20.5669 72.7717 14.6555 9.11803 43.8239 -3.26757 -6.10842 -127.452 -3.31597 3.78608 66.3374 -2.40751 -3.24045 54.3963 0.152684 -2.41183 -47.0039 10.232 -2.53661 3.62375 -15.586 0.738855 
-0.0014654 0.4787780 -0.0020590 -3.43294 5.47364 0.21375 -173.597 0.923684 -1.20559 8.59668 0.0881954 8.97759 3.79851 -9.44404 22.547 -104.857 66.3446 116.189 -109.366 -30.9415 -147.604 117.439 -31.8987 -136.441 -58.0469 15.2992 -1.25755 -23.4866 7.30503 -25.418 75.0029 -32.3209 48.7739 42.8513 -12.9456 -48.3997 -81.2913 -10.6502 -6.09988 -6.62664 1.81487 -4.38259 -118.086 -3.33427 -20.6983 72.9234 14.0669 9.07489 43.9779 -3.20664 -6.04051 -127.451 -3.21378 3.7017 66.5369 -2.83889 -3.32027 54.4287 0.238715 -2.33092 -48.7726 8.90443 1.07059 3.58634 -19.1996 1.30885 
-0.0041521 0.4790650 -0.0046578 -3.15482 5.00521 -0.08192 -173.491 0.840341 -1.05422 8.14475 -0.0428348 8.88501 3.00736 -9.83825 22.0564 -103.609 66.606 115.751 -109.099 -30.8305 -147.093 117.618 -32.7019 -136.449 -58.0787 14.8677 -1.42258 -23.1359 7.12081 -25.013 73.446 -34.1511 47.5569 38.7627 -13.5915 -50.5314 -75.1598 -14.4081 -1.86056 -5.73917 1.80008 -5.23252 -117.503 -3.55688 -20.3162 71.9858 14.134 9.13475 44.077 -3.21547 -6.02939 -127.51 -3.38431 4.10455 66.7388 -3.53931 -3.44627 54.2783 0.387289 -2.18618 -49.9104 7.73586 4.47141 3.29679 -22.1515 1.85721 
-0.0069735 0.4789680 -0.0071506 -2.80224 4.56658 -0.22265 -173.061 0.994955 -0.26688 6.50891 0.0193579 7.75563 3.09277 -10.1399 22.082 -102.577 66.6131 115.357 -108.747 -30.1747 -147.688 117.894 -33.5472 -137.027 -57.2808 14.8392 -1.84265 -22.7912 6.92606 -24.5972 73.8778 -33.8009 48.1883 32.9827 -16.0916 -51.7029 -67.9235 -14.542 1.24082 -5.09062 1.12495 -3.04738 -117.498 -3.67819 -20.2003 71.8732 13.9306 9.19692 44.3894 -3.21768 -6.03143 -127.651 -3.51811 4.3794 67.0625 -4.23947 -3.56366 53.993 0.534933 -2.04112 -50.9905 6.66296 7.6202 3.14347 -24.7617 2.244 
-0.0103092 0.4789410 -0.0099548 -2.48869 4.06323 -0.56583 -172.905 1.10543 0.164929 5.54748 0.115798 6.93288 3.30927 -11.0143 22.2989 -101.466 66.1074 114.176 -108.597 -29.9184 -147.888 118.295 -34.2028 -136.919 -56.3025 15.103 -2.29431 -22.8507 6.83795 -24.2741 74.0496 -33.8411 48.8028 32.7464 -19.3896 -52.78 -68.7892 -16.1322 1.08975 -9.17055 0.680033 0.472991 -117.16 -3.82827 -20.0619 71.4797 14.1468 9.32595 44.7496 -3.27261 -6.09868 -127.88 -3.78822 4.47624 67.5639 -4.7829 -3.48183 53.9301 0.637882 -1.94508 -51.7271 5.62561 10.4534 3.02654 -26.8041 2.60061 
-0.0139977 0.4789690 -0.0128935 -2.04355 3.70334 -1.07110 -173.412 1.19121 0.0814111 5.52946 0.247123 6.72581 2.92711 -11.6663 22.0101 -100.625 65.6933 113.485 -108.578 -30.0276 -147.549 119.229 -34.6522 -135.945 -54.8015 14.9549 -2.74197 -22.8072 6.74644 -23.9648 74.0772 -33.9309 49.0664 34.3608 -19.8231 -55.869 -67.6084 -22.1187 3.815 -13.2387 1.27467 -0.931889 -116.845 -3.98044 -20.1499 70.9137 14.2699 9.59174 45.169 -3.33158 -6.16659 -128.02 -3.67273 4.56791 67.735 -4.44557 -3.59065 53.5854 0.602207 -1.97433 -52.2606 4.53156 12.821 3.0548 -28.2556 2.97397 
-0.0178484 0.4792590 -0.0156140 -1.51896 3.24898 -1.59723 -174.013 1.15212 0.0200686 5.59804 0.269651 6.38635 2.92584 -12.5108 22.2475 -100.089 64.8686 112.731 -108.502 -30.0349 -147.301 120.111 -34.8673 -135.355 -53.459 14.5614 -2.96441 -22.6488 6.68121 -23.7856 73.8547 -34.078 48.6659 34.9098 -20.9786 -56.6972 -67.9499 -17.5671 5.20236 -8.76541 0.266362 1.21901 -116.512 -4.11906 -19.8702 70.2669 14.1063 9.72159 45.7348 -3.37396 -6.20829 -128.284 -2.98476 6.10134 67.6468 -5.0011 -4.77761 53.7791 0.816683 -1.74942 -52.7214 3.6788 14.8329 3.11157 -29.3034 3.36377 
-0.0218911 0.4791180 -0.0183998 -1.00311 2.98383 -2.12670 -174.464 1.12336 -0.181891 5.33901 0.310469 6.00719 3.00673 -13.1301 22.7253 -99.241 63.9354 112.634 -108.456 -29.9422 -147.397 120.01 -35.0413 -135.486 -52.7634 13.9365 -3.03136 -22.0278 6.33765 -23.0654 74.0307 -33.8501 48.7619 32.8967 -22.6469 -56.6636 -66.7086 -19.3939 6.13837 -10.0838 0.206822 1.78888 -116.32 -4.03427 -19.6787 70.0454 13.8258 9.68816 46.1383 -3.3588 -6.19424 -128.484 -2.99541 5.94356 67.8566 -4.94652 -4.70438 53.3838 0.772594 -1.76042 -53.0021 2.88423 16.3128 3.31564 -30.0016 3.85216 
-0.0259434 0.4790240 -0.0213133 -0.51382 2.71406 -2.69123 -174.753 1.02594 -0.553244 4.90051 0.272081 5.80458 3.75808 -14.06 23.803 -99.7127 62.444 112.145 -108.214 -29.6404 -147.429 119.744 -35.1474 -135.967 -52.1414 14.0549 -3.11219 -22.0858 6.20114 -22.6652 73.0733 -34.7956 47.6998 35.0049 -23.1021 -55.2842 -66.6944 -21.3414 4.729 -12.7247 0.42539 1.78447 -116.237 -3.93554 -19.2047 69.9947 13.1328 9.39259 46.7532 -3.25782 -6.07235 -128.669 -3.09382 5.925 67.8679 -5.6599 -4.6813 53.4757 0.888323 -1.6268 -53.1707 2.28865 17.3657 3.55892 -30.4422 4.44482 
-0.0295988 0.4788460 -0.0239643 -0.21571 2.87540 -3.25720 -175.253 1.03397 -0.909531 5.11257 0.402402 5.38426 4.20566 -15.1922 25.0084 -100.035 60.0489 112.229 -108.27 -29.7916 -147.211 119.466 -35.2614 -136.11 -51.6666 13.3783 -2.98417 -21.5254 5.87279 -21.9507 73.202 -34.6827 47.8648 34.6789 -24.1363 -56.3752 -66.3661 -19.7943 5.52928 -11.4063 0.0407631 2.68384 -116.111 -3.59681 -19.0887 70.3671 12.4494 8.89448 46.8374 -3.12444 -5.91897 -128.817 -2.79341 5.56651 68.2385 -6.02703 -4.73256 53.2564 0.955352 -1.5363 -53.0146 1.63692 17.6704 3.90039 -30.5507 5.08715 
-0.0332915 0.4786470 -0.0266045 0.09224 2.83498 -3.91590 -175.308 1.0716 -1.16076 4.30754 0.598626 4.34221 5.58448 -16.3965 27.2877 -99.8655 57.8717 111.967 -108.264 -29.4612 -148.055 118.446 -34.6667 -137.207 -51.0043 13.8603 -2.78541 -21.7426 5.38857 -20.6208 74.0073 -33.6297 48.2492 34.3138 -25.2747 -55.9415 -66.1407 -20.0482 5.36634 -12.2351 -0.0682526 3.3068 -115.932 -3.38653 -18.6694 70.5611 11.7675 8.3984 47.2231 -3.00264 -5.77177 -129.06 -2.59868 5.52784 68.5877 -6.64639 -4.89201 53.2092 1.07967 -1.40221 -52.7919 1.25101 17.7471 4.17634 -30.325 5.67677 
-0.0369576 0.4782170 -0.0292951 0.33618 2.99900 -4.61955 -175.95 0.965629 -2.29655 4.80735 0.579698 4.86089 6.11953 -17.5235 28.7485 -99.5805 55.3325 112.33 -108.158 -29.5882 -147.391 118.594 -34.7365 -136.942 -50.162 13.462 -2.86652 -21.4596 5.20525 -20.225 73.7234 -33.7982 47.7041 33.8554 -25.5728 -55.317 -65.4935 -20.2057 4.42053 -13.8454 -0.309413 4.51589 -115.67 -2.90023 -18.2587 70.9775 11.0713 7.69157 47.5101 -2.84093 -5.5863 -129.316 -2.54989 4.93813 69.062 -7.41519 -4.70567 53.4311 1.20328 -1.28335 -52.3705 0.929966 17.2253 4.39287 -29.6915 6.15883 
